<svg xmlns="http://www.w3.org/2000/svg" width="506" height="493" xmlnsV="https://vecta.io/nano"><path d="M151.046 3.401l9.145 1.731C199.321 12.345 235.135 28.269 270 47l6.406 3.426 3.37 1.809 6.825 3.634c4.678 2.493 9.282 4.95 13.63 7.99 10.193 7.007 19.467 6.938 31.617 6.988 9.274.075 18.434.934 27.652 1.902l2.533.266c39.361 4.198 77.856 12.979 113.905 29.609l3.463 1.594c20.089 9.515 20.089 9.515 25.6 17.781 2.228 7.106.975 14.092-.802 21.155-2.712 10.815-4.991 21.639-6.886 32.626l-.761 4.363-10.377 61.617-2.179 13.083-9.191 55.657-.543 3.344-2.542 15.72C467.397 356.31 462.2 382.869 455 409l-.747 2.725-5.328 18.925-1.813 6.413-2.612 9.054-.751 2.752c-1.643 5.432-3.499 8.495-8.098 11.882-2.641 1.997-4.431 4.547-6.401 7.186l-1.257 1.658c-2.347 3.113-4.61 6.276-6.833 9.479l-1.44 2.045-2.701 3.943c-3.072 4.368-5.744 6.372-11.019 7.938-5.596.529-10.411-.641-15.75-2.125l-2.535-.682a272.41 272.41 0 0 1-14.104-4.284C351.132 478.456 327.415 473.411 304 470l-2.257-.351c-11.329-1.716-22.683-1.852-34.118-1.899l-2.2-.016c-12.545-.07-24.39 1.566-36.671 4.094-4.919.307-8.271-1.209-11.902-4.402l-3.227-3.113-3.449-3.281-1.662-1.594c-2.46-2.335-5.023-4.543-7.596-6.75-1.36-1.197-2.688-2.43-3.992-3.687-40.991-38.973-114.924-65.965-171.095-64.949-17.696.205-17.696.205-23.631-4.469-3.658-4.825-2.627-11.915-1.966-17.58.794-5.735 1.791-11.438 2.775-17.143l.961-5.691 2.611-15.251 1.639-9.549 14.97-81.556.428-2.144 5.523-27.416 7.924-39.565.421-2.13c3.845-19.481 7.186-38.933 9.05-58.718C49.494 71.834 66.292 49.916 85 26l5.698-7.299 3.634-4.639c2.414-3.085 4.751-6.129 6.821-9.457 8.381-11.818 37.879-3.681 49.894-1.204zM120 18l-.25 1.854-9.746 67.591-.413 2.5c-2.887 17.109-6.127 34.159-9.532 51.171l-.565 2.825-16.213 76.539-2.988 13.778-17.755 79.734-.529 2.258-1.389 5.887c-.69 2.699-.69 2.699-.62 4.861l3.406.559C106.037 334.808 146.573 345.713 185 366l2.158 1.127c15.181 7.979 28.963 17.535 42.29 28.308 3.064 2.467 6.162 4.577 9.552 6.565l13.465-79.602 1.116-6.972 4.469-28.087c6.744-42.648 14.6-85.014 24.325-127.09l.798-3.489c4.384-19.137 9.153-38.162 14.221-57.13l.738-2.765 1.37-5.082c1.101-3.838 1.101-3.838 1.498-7.785l-2.405-1.278-9.155-4.872-4.141-2.204-22.702-12.301c-35.586-19.75-71.631-34.408-111.66-42.219l-2.402-.478C138.866 18.741 129.883 17.608 120 18zM99 37c-2.933 11.137-5.316 22.285-7.312 33.625l-.439 2.467-7.124 43.471-.458 2.948C81.993 130.334 80.516 141.049 80 152h1c5.76-29.217 11.295-58.427 15.75-87.875l.534-3.478 1.451-9.702.44-2.893.379-2.654.337-2.296c.117-2.244-.236-3.964-.891-6.103zM85 55l1 2zm-1 2c-5.074 5.286-4.139 13.073-4.062 19.938l.014 2.361L80 85h1l2-11.187.578-3.197.547-3.096.508-2.841c.356-2.599.434-5.06.367-7.679h-1zM70 78c-5.435 12.829-6.156 26.85-7.585 40.566-1.762 16.421-4.751 32.529-8.011 48.704l-2.227 11.211L46.5 207l-7.406 37.25-.456 2.308L25.9 315.714l-1.105 6.442-1.996 11.836-.605 3.533-.528 3.228-.466 2.796c-.199 2.44.051 4.137.8 6.451 1.369-3.237 2.395-6.328 3.106-9.769l.592-2.829.629-3.074.683-3.276 1.468-7.073 3.599-17.285.848-4.059 6.699-31.467.455-2.101 1.815-8.377L58 183l.414-2.191C68.136 129.734 68.136 129.734 71 78h-1zm9 8v5h1v-5h-1zm239 2c-9.067 31.681-16.738 63.667-23.687 95.875l-.655 3.031-3.942 18.672-1.458 6.886c-6.382 29.773-10.986 59.86-15.775 89.92l-3.832 23.949-.688 4.293-1.022 6.372-1.996 12.46L255 410l3.529.058c20.629.346 41.045.732 61.471 3.942l3.719.582c30.414 4.892 60.072 11.663 88.672 23.253l2.076.838 5.53 2.278c3.103 1.271 3.103 1.271 7.004 1.051 18.348-60.486 28.762-121.723 38.784-184.03L469 238l.379-2.351 4.716-28.986 1.878-11.519c2.689-16.688 5.718-33.171 9.831-49.575 1.398-5.652 2.626-10.737 2.196-16.57-51.586-28.025-111.204-41.512-170-41zM79 152v5h1v-5h-1zm-1 6l1 4zm-1 6l1 2zm-23 79l1 2zm-1 5l1 3zm-1 4l1 3zm-1 5l1 3zm-1 5l1 3zm-1 4l1 4zm-1 5l1 4zm-1 5l1 4zm-1 5l-3.735 16.968-1.269 5.761-1.832 8.326-.565 2.561-1.067 4.914-1.147 5.172-.583 2.669-.538 2.4c-.28 2.368.011 3.974.736 6.228 2.252-4.858 3.132-9.938 4.164-15.156l.597-2.969 1.235-6.203 1.902-9.48 1.203-6.035.578-2.857.526-2.68.466-2.343c.354-2.453.384-4.801.328-7.276h-1zm6 63l-1 2 3.62.911C90.376 355.942 126.11 365.223 160 380l3.018 1.307c18.949 8.271 37.419 17.538 54.498 29.244L220 412l2-1c-8.539-7.474-17.4-13.964-27-20l-1.923-1.218c-16.873-10.584-34.974-19.003-53.514-26.22l-3.006-1.178c-14.765-5.584-30.163-9.161-45.553-12.552l-7.902-1.79C72.689 345.71 62.681 344.266 52 344zm-9 9l-2 3c5.443 1.442 10.88 2.555 16.422 3.546 57.997 10.487 107.231 35.542 155.659 68.199l2.946 1.982 2.617 1.768A55.65 55.65 0 0 0 225 435c1.718-2.252 1.718-2.252 3-5-1.128-3.263-2.694-4.794-5.535-6.664l-2.175-1.445-2.353-1.516-2.452-1.602C207.472 413.583 199.341 408.645 191 404l-2.548-1.421C173.119 394.113 157.338 387.278 141 381l-2.854-1.108c-23.753-9.172-48.225-15.795-72.896-21.954l-3.008-.751-8.476-2.097-2.597-.643C47.132 353.39 47.132 353.39 43 353zm-11 11l-1 2h12v-1l-11-1zm190 48l2 3 2-1-4-2zm31 16v1l2.825.12c51.82 2.261 102.26 7.586 150.175 28.88l7 3 2-4c-32.077-14.681-66.235-21.931-101-27l-3.729-.593c-11.917-1.738-23.749-1.633-35.771-1.532l-6.285.027L253 428zm-45 7c3.804 3.919 7.816 7.491 12 11v-4c-2.128-2.029-2.128-2.029-4.875-3.75l-2.742-1.859c-2.211-1.559-2.211-1.559-4.383-1.391zm35 3l-3 6 2.707-.219c32.922-2.367 65.606-.642 98.203 4.316 5.022.763 10.037 1.384 15.09 1.902-4.432-2.955-9.121-3.416-14.312-4.375l-3.545-.655c-10.521-1.849-21.083-3.11-31.705-4.22l-2.377-.251c-16.219-1.689-32.372-2.682-48.685-2.562l-3.656.014L243 438zm113 12l4 1zm4 1l4 1zm-44 2l4 1zm5 1v1l2.142.44c44.605 9.214 44.605 9.214 65.13 16.695 4.627 1.656 8.867 2.4 13.728 2.865v-2c-39.57-14.291-39.57-14.291-81-19z" fill="#161616"/><path d="M157 274l7.516 6.238c6.488 4.601 11.862 5.16 19.609 5.262 17.405.612 37.577 5.357 50.875 17.5-.25 2.375-.25 2.375-1 5-1.789 1.266-1.789 1.266-4 2-2.008-.536-2.008-.536-4.125-1.633l-2.374-1.189-2.501-1.303c-13.286-6.616-24.934-9.972-39.748-10.305-12.201-.471-20.596-5.471-29.647-13.362C139.845 272.038 130.117 271.146 115 272c-3.008.29-5.984.607-8.969 1.074C104 273 104 273 102.207 271.648 101 270 101 270 101.188 267.938 102 266 102 266 104 264c19.069-6.356 37.789-2.173 53 10z" fill="#2a2a2a"/><path d="M153.355 131.84c11.492-.42 20.951 2.624 29.645 10.16 2.667 2.543 5.269 5.148 7.803 7.824 4.891 5.349 4.891 5.349 11.583 7.304 2.938-.049 5.867-.178 8.802-.316 8.896-.199 14.962.016 21.813 6.188l5.125 4.063 2.469 2.035c3.308 2.615 6.781 4.754 10.406 6.902-.875 4.875-.875 4.875-2 6-5.984.876-9.383-1.594-14-5l-7.703-6.23c-3.821-2.944-6.367-4.029-11.219-3.824l-2.859.074-5.891.234c-9.156.211-14.72-2.297-21.391-8.566l-2.562-2.375c-2.045-1.992-3.993-4.036-5.937-6.125-5.073-5.156-11.348-7.358-18.437-8.187a157.73 157.73 0 0 0-7.687.375l-2.116.139a177.94 177.94 0 0 0-15.06 1.693C132 144 132 144 130.145 142.262 129 140 129 140 129.313 137.75L130 136c7.829-2.106 15.281-3.611 23.355-4.16zm23.868-45.891c6.083 2.302 11.652 2.512 18.063 1.566C207.444 85.828 216.944 86.638 228 92l2.625 1.268 2.91 1.408 3.033 1.464 5.948 2.938c5.676 2.801 11.108 4.834 17.282 6.26C262 106 262 106 264 108c.313 2.5.313 2.5 0 5-3.477 2.318-4.009 2.17-7.937 1.438-10.11-2.104-19.177-6.863-28.28-11.583-6.932-3.561-12.897-6.281-20.845-6.105l-3.926.066c-3.934.147-7.841.515-11.762.871-8.575.594-14.865-1.359-22.766-4.449-10.176-3.951-17.994-6.576-28.984-4.613C137 89 137 89 134 87c-.5-2.437-.5-2.437 0-5 12.704-9.881 30.387-1.175 43.223 3.949zM144.5 203.688l2.082-.053c9.721.009 17.821 3.78 26.168 8.428 10.648 5.866 17.361 7.149 29.488 6.039 10.564-.724 17.858 2.832 26.262 8.898 5.031 3.508 9.784 6.318 15.645 8.281C246 236 246 236 248 238c-.556 4.556-.556 4.556-2 6-10.064 1.565-19.078-5.875-26.828-11.453-6.613-4.71-11.794-5.184-19.609-4.047-13.373 1.877-22.972-2.904-34.461-9.326-8.725-4.813-16.061-5.4-25.914-5.174l-6.77.125-3.007.07C127 214 127 214 125 212c.375-3.125.375-3.125 1-6 6.141-1.69 12.161-2.24 18.5-2.312z" fill="#2c2c2c"/><path d="M383.902 158.738c4.804 2.89 9.499 3.487 14.973 3.842 17.79 1.18 31.717 9.003 47.125 17.42l-1 6c-5.154 1.331-7.8.608-12.535-1.711l-1.822-.871-5.706-2.793-5.716-2.771-5.178-2.531c-5.089-2.212-9.663-2.434-15.168-2.635-12.45-.737-21.072-5.769-31.273-12.445-9.904-6.344-19.587-5.641-30.675-3.273-3.961.821-7.018 1.195-10.927.031l-1-6c4.434-3.147 8.74-4.105 14-5l2.277-.414c16.596-2.375 29.488 3.619 42.625 13.152zm-17.129 127.457c6.953 3.889 12.864 4.061 20.664 4.18 12.361.354 24.968 1.633 35.563 8.625 1.063 2.625 1.063 2.625 1 5l-1 2c-5.342.268-9.473-.67-14.437-2.437-8.28-2.731-16.241-3.155-24.924-3.109-9.681-.066-17.597-2.816-25.764-8.016-13.676-8.188-26.847-8.307-42.16-5.129-3.058.569-5.632 1.014-8.715.691-2-2-2-2-2.125-4.625L305 281c19.797-11.167 43.445-5.97 61.773 5.195z" fill="#2a2a2a"/><path d="M346.226 350.382c14.112 7.036 28.301 7.807 43.792 8.667 19.103 1.072 19.103 1.072 21.981 3.95.375 2.375.375 2.375 0 5-2.709 2.156-4.292 3.019-7.785 2.926l-3.277-.613c-8.845-1.494-17.735-1.965-26.686-2.438-13.186-.811-23.768-4.2-35.627-9.937l-6.773-3.223-2.974-1.434c-10.787-4.802-19.828-3.87-30.877-.28-2.062-1.75-2.062-1.75-4-4-.016-2.113-.016-2.113 1-4 1.891-1.23 1.891-1.23 4.25-2.187l2.328-.98c16.067-5.52 30.445 1.343 44.648 8.55zm30.387-129.749c7.673 4.395 15.781 3.741 24.383 3.846 7.717.184 14.613 1.304 22.004 3.521l2.125.634c1.682.534 3.343 1.135 5 1.741l3.258 1.148C436 233 436 233 437.367 235.664L438 238c-1.062 1.563-1.062 1.563-3 3-4.364-.35-8.18-1.341-12.289-2.815-9.638-3.368-18.929-3.778-29.093-3.732-7.409-.043-12.992-1.118-19.618-4.453l-1.928-.969c-1.666-.874-3.307-1.795-4.947-2.719-9.721-5.469-19.536-5.74-30.319-2.831l-5.724 1.741C328 226 328 226 325 225c-1.125-5.75-1.125-5.75 0-8 18.038-7.751 35.007-7.25 51.613 3.633z" fill="#2c2c2c"/><path d="M364.25 119.063c2.412 1.292 2.954 2.331 3.75 4.938-.125 2.563-.125 2.563-1 5-2.062 1.813-2.062 1.813-4 3h3c2.139-2.139 2.427-3.133 3-6l4.313-.125 2.426-.07C378 126 378 126 381 128l-1 3-3 1c-.733 2.015-.733 2.015-1 4l1.355-1.277c6.17-5.591 6.17-5.591 10.645-5.723 1.968 1.968 1.662 5.348 2 8l.938-1.875L393 131c3.371 1.445 5.58 3.247 8 6l1 3 1-4h10l2 4 7-1c2 3 2 3 1.813 5.563C423 147 423 147 420 149l3 2-2 4-2.375-1.375c-3.796-1.702-7.221-2.416-11.281-3.168-2.677-.522-4.974-1.081-7.344-2.457-.812-2.125-.812-2.125-1-4l-2 1c-2.672.134-5.323.043-8 0l-1-2-4 1-1-4-2.625 1.125c-4.134 1.072-5.438.435-9.375-1.125l-8.414-2.121C360 137 360 137 357.914 135.402c-2.056-1.796-2.056-1.796-5.914-1.402.464-4.73.979-8.25 4-12 2.863-1.828 4.818-3.033 8.25-2.937zM395 137v3l3-1-3-2zm15 4l1 4-2 1h3l2-5h-4z" fill="#4f4f4f"/><path d="M184 54v4l-2 1 5 4 1.875-2.5L191 58h2l1 2c3.026.61 6.055.96 9.117 1.34 3.005.688 4.175 1.12 5.883 3.66-.312 3.188-.312 3.188-1 6 2.874-2.716 2.874-2.716 5-6h3l1 4h4l-1 6c3.265-1.804 4.889-2.834 7-6l12 3c1 5 1 5 0 8v4c-3.127 1.564-6.58 1.4-10 1l-3-2 1-4c-1.184-.085-1.184-.085-2.687 1-2.883 1.247-5.204 1.141-8.312 1l-2-6-1 3c-2.062.688-2.062.688-4 1l-1-4-1.812 1C204 77 204 77 201 77c.75-6.625.75-6.625 3-10l-3-1c-1.523 2.937-2.801 5.917-4 9l-4-1c.75-5.75.75-5.75 3-8l-4-1-3 7-4-1v-3l-2.957.07-3.855.055-3.832.07C171 68 171 68 168 66c-.5-3.375-.5-3.375 0-7 4.388-4.775 9.71-6.85 16-5zm-11 8v1h6l1-4c-2.917 0-4.608 1.426-7 3z" fill="#454545"/><path d="M404 137h10l1 3 7-1c2 3 2 3 1.813 5.563C423 147 423 147 420 149l3 2-2 4-2.375-1.375c-4.46-1.999-8.828-2.819-13.625-3.625v-2l-4-1c.61-3.558 1.578-6.683 3-10zm6 4l1 4-2 1h3l2-5h-4z" fill="#444"/><path d="M227 69l12 3c1 5 1 5 0 8v4c-3.127 1.564-6.58 1.4-10 1l-3-2 1-4c-1.224-.075-1.224-.075-3 1-2.333.04-4.667.043-7 0l-1-5 2-1v3c2.539-.385 3.728-.701 5.484-2.629l1.266-1.934L227 69z" fill="#3b3b3b"/><path d="M364.25 119.063c2.412 1.292 2.954 2.331 3.75 4.938-.125 2.563-.125 2.563-1 5-2.062 1.813-2.062 1.813-4 3h3 1v6c-4.71-.453-7.324-1.085-11-4h-4c.464-4.73.979-8.25 4-12 2.863-1.828 4.818-3.033 8.25-2.937z" fill="#484848"/><path d="M184 54v4l-2 1 2.063 1.75L186 63c-.379 2.141-.379 2.141-1 4l-7.937.063-2.287.025A182.68 182.68 0 0 1 169 67c-1-1-1-1-1.375-4.312.375-3.687.375-3.687 2.5-6 4.833-2.837 8.362-4.309 13.875-2.687zm-11 8v1h6l1-4c-2.917 0-4.608 1.426-7 3z" fill="#3b3b3b"/><path d="M393 131c3.371 1.445 5.58 3.247 8 6l1 3 1-4h10v1h-9l-.437 2.188L402 147l3 2-5-1-1-4-2 1c-2.672.134-5.323.043-8 0-.687-2.312-.687-2.312-1-5l3-3 2-6zm2 6v3l3-1-3-2z" fill="#6b6b6b"/><path d="M389 130c1.453 8.035 1.453 8.035-.437 12.063L387 144l-4-1v-3h-6c1.204-4.413 2.432-7.081 6-10 3-1 3-1 6 0z" fill="#3f3f3f"/><path d="M404 137h10v4l-3 1-1 7-8-1c-.625-2.375-.625-2.375-1-5l2-2 1-4z" fill="#292929"/><path d="M191 58h2l1 2c1.895.465 1.895.465 4.063.625L202 61v1h-8v2l-1.375 1.313c-1.968 2.044-2.692 4.033-3.625 6.688l-4-1v-3h-14v-1l2.852.063c7.177.142 7.177.142 13.344-2.91 1.579-2.167 1.579-2.167 2.789-4.437L191 58z" fill="#888"/><path d="M395 132c3.291 1.135 3.996 1.993 5.75 5.125L402 140l1-4h10v1h-9l-.437 2.188L402 147l3 2-5-1c-1-4.75-1-4.75-1-7h-5c-.074-3.343-.065-5.804 1-9zm0 5v3l3-1-3-2z" fill="#a0a0a0"/><path d="M238 78l1 6c-3.127 1.564-6.58 1.4-10 1l-3-2 1-4 1.688.625C232.274 80.207 234.509 78 238 78z" fill="#585858"/><path d="M238 72l2 1-1 5-3.375.875c-3.628.817-3.628.817-5.625 3.125l-2-1v-7l3.875.125c2.144.117 2.144.117 4.125-.125l2-2z" fill="#424242"/><path d="M213 65h3l1 4h4l-1 6 3 1-5 1-1-2v4l5 1v1h-6c-1.963-5.542-2.016-9.209-1-15l-2-1z" fill="#757575"/><path d="M36 364c4.983-.169 8.429-.158 13 2 1.327.359 2.658.702 4 1v1c-7.716.157-15.315-.325-23-1l1-2h5v-1z" fill="#a4a4a4"/><path d="M209 65l-1 6 4-2-1 3-2.812-.562c-3.201-.679-3.201-.679-6.187.563l2-5-3-2c3.287-.8 4.71-1.097 8 0z" fill="#5a5a5a"/><path d="M213 66h2l-1 9h-2v2h-3c.607-4.128 2.038-7.332 4-11z" fill="#171717"/><path d="M196 66l3 1-2 8-4-1c.75-5.75.75-5.75 3-8z" fill="#606060"/><path d="M423 151l-2 4-2.75-1.437c-2.514-1.209-4.546-2.042-7.25-2.562v-1c4.716-.925 7.673-1.229 12 1z" fill="#737373"/><path d="M395 132c1.938.75 1.938.75 4 2 1.238 2.953 1.042 3.874 0 7h-5c-.074-3.343-.065-5.804 1-9zm0 5v3l3-1-3-2z" fill="#787878"/><path d="M399 138c1.125 3.75 1.125 3.75 0 6h-9l2-4 1 2 6-1v-3z" fill="#0e0e0e"/><path d="M190 64c.125 5.75.125 5.75-1 8h-3l1-7c2-1 2-1 3-1z" fill="#353535"/><path d="M422 140l2 2c-.375 2.625-.375 2.625-1 5l-6 2v-2l1.938-1.375c2.33-1.836 2.667-2.754 3.063-5.625z" fill="#686868"/><path d="M213 65h3l1 4h4l-1 4v-2l-5 1v-6l-2-1z" fill="#999"/><path d="M414 138v3c-3.287.8-4.71 1.097-8 0v-2l8-1z" fill="#878787"/><path d="M380 128v3c-3.287.8-4.71 1.097-8 0v-2l8-1z" fill="#858585"/><path d="M230 72h8l-2 3-4-1-1 2-1-4z" fill="#0b0b0b"/></svg>